<svg xmlns="http://www.w3.org/2000/svg" viewBox="8994.303 3890 90.06 94.374">
  <path id="np_warm-welcome_991742_000000" d="M64.26,16.934a42.075,42.075,0,0,0-33.738,67.21L16.265,110.958a.475.475,0,0,0,.605.322L43.562,95.641a42.073,42.073,0,1,0,20.7-78.707ZM84.379,65.922,65.586,84.02a1.89,1.89,0,0,1-2.654,0L44.106,65.861c-.239-.211-6.878-6.273-6.878-13.513,0-8.838,5.4-14.118,14.418-14.118,5.28,0,10.226,4.164,12.608,6.518,2.382-2.354,7.328-6.518,12.608-6.518,9.022,0,14.423,5.28,14.423,14.118.006,7.239-6.634,13.3-6.906,13.574Z" transform="translate(8978.037 3873.066)"/>
</svg>
