<?xml version="1.0" encoding="UTF-8"?>
<svg width="100pt" height="100pt" version="1.1" viewBox="0 0 100 100" xmlns="http://www.w3.org/2000/svg">
 <path d="m27.5 31.5c3.0352 0 5.5-2.4648 5.5-5.5v-9c0-3.0352-2.4648-5.5-5.5-5.5s-5.5 2.4648-5.5 5.5v9c0 3.0352 2.4648 5.5 5.5 5.5zm45 0c3.0352 0 5.5-2.4648 5.5-5.5v-9c0-3.0352-2.4648-5.5-5.5-5.5s-5.5 2.4648-5.5 5.5v9c0 3.0352 2.4648 5.5 5.5 5.5zm12.5-11h-4v6.5c0 4.6953-3.8086 8.5-8.5 8.5s-8.5-3.8047-8.5-8.5v-6.5h-28v6.5c0 4.6953-3.8047 8.5-8.5 8.5s-8.5-3.8047-8.5-8.5v-6.5h-4c-2.7617 0-5 2.2383-5 5v58c0 2.7617 2.2383 5 5 5h63l12-12v-51c0-2.7617-2.2383-5-5-5z"/>
</svg>
