<svg xmlns="http://www.w3.org/2000/svg" viewBox="9882 3366 77 77">
  <defs>
    <style>
      .cls-1 {
        fill: #f44336;
      }
    </style>
  </defs>
  <path id="np_close_1014231_F44336" class="cls-1" d="M50,11.5A38.5,38.5,0,1,0,88.5,50,38.582,38.582,0,0,0,50,11.5ZM63.9,63.8a2.669,2.669,0,0,1-3.6,0L50,53.5,39.8,63.8a2.511,2.511,0,1,1-3.6-3.5L46.5,50,36.2,39.7a2.475,2.475,0,0,1,3.5-3.5L50,46.5,60.3,36.2a2.475,2.475,0,0,1,3.5,3.5L53.5,50,63.9,60.3a2.416,2.416,0,0,1,0,3.5Z" transform="translate(9870.5 3354.5)"/>
</svg>
