<svg xmlns="http://www.w3.org/2000/svg" xmlns:xlink="http://www.w3.org/1999/xlink" viewBox="2543 1885 168 168">
  <defs>
    <style>
      .cls-1 {
        fill: #009688;
        stroke: #95989a;
      }

      .cls-2 {
        fill: #fff;
      }

      .cls-3 {
        stroke: none;
      }

      .cls-4 {
        fill: none;
      }

      .cls-5 {
        filter: url(#Ellipse_1);
      }
    </style>
    <filter id="Ellipse_1" x="2543" y="1885" width="168" height="168" filterUnits="userSpaceOnUse">
      <feOffset dy="3" input="SourceAlpha"/>
      <feGaussianBlur stdDeviation="3" result="blur"/>
      <feFlood flood-opacity="0.161"/>
      <feComposite operator="in" in2="blur"/>
      <feComposite in="SourceGraphic"/>
    </filter>
  </defs>
  <g id="Group_1" data-name="Group 1" transform="translate(277 202)">
    <g class="cls-5" transform="matrix(1, 0, 0, 1, -277, -202)">
      <g id="Ellipse_1-2" data-name="Ellipse 1" class="cls-1" transform="translate(2552 1891)">
        <circle class="cls-3" cx="75" cy="75" r="75"/>
        <circle class="cls-4" cx="75" cy="75" r="74.5"/>
      </g>
    </g>
    <g id="np_edit_688969_FFFFFF" transform="translate(2302.602 1719.602)">
      <path id="Path_1" data-name="Path 1" class="cls-2" d="M76.2,36.4l-.1,34.8-50.7-.1.2-50.7,34.8.1v-3l-37.8-.1-.2,56.7,56.7.2.1-37.9Z"/>
      <path id="Path_2" data-name="Path 2" class="cls-2" d="M50,54.9,73.6,30.8,66,23.4,42.4,47.5Z"/>
      <path id="Path_3" data-name="Path 3" class="cls-2" d="M75.7,21.1c-2.1-2-5.8-1.6-8.2.9l7.6,7.4c2.4-2.5,2.7-6.2.6-8.3Z"/>
      <path id="Path_4" data-name="Path 4" class="cls-2" d="M74.5,29.8l-7.4-7.3-.5.5,7.5,7.3Z"/>
      <path id="Path_5" data-name="Path 5" class="cls-2" d="M40.5,57.3l9.3-1.9L42.1,48Z"/>
    </g>
  </g>
</svg>
