<?xml version="1.0" encoding="UTF-8"?>
<svg width="100pt" height="100pt" version="1.1" viewBox="0 0 100 100" xmlns="http://www.w3.org/2000/svg">
 <path d="m94.199 39.199c-1-3.1016-3.8008-5.1016-7.1016-5.1016l-22.598 0.003906-7-21.5c-1-3.1016-3.8008-5.1016-7.1016-5.1016-3.1992 0-6.1016 2.1016-7.1016 5.1016l-7 21.5h-22.598c-3.1992 0-6.1016 2.1016-7.1016 5.1016-1 3.1016 0.10156 6.3984 2.6992 8.3008l18.301 13.301-7 21.5c-1 3.1016 0.10156 6.3984 2.6992 8.3008 1.3008 1 2.8008 1.3984 4.3984 1.3984 1.6016 0 3.1016-0.5 4.3984-1.3984l18.301-13.301 18.301 13.301c2.6016 1.8984 6.1016 1.8984 8.8008 0 2.6016-1.8984 3.6992-5.3008 2.6992-8.3008l-7-21.5 18.301-13.301c2.6055-1.9023 3.7031-5.2031 2.7031-8.3047z"/>
</svg>
