<svg xmlns="http://www.w3.org/2000/svg" viewBox="9463 3883 92.332 92.453">
  <g id="np_guitar_622903_000000" transform="translate(9459.17 3879.328)">
    <path id="Path_16" data-name="Path 16" d="M34.332,42.555c-4.668,3.777-3.777,6.891-6.668,9.777C24.445,55.555,14,55.223,8.555,60.668-2.777,72,9.446,84.559,12.446,87.559s15.668,15.109,26.891,3.891C44.782,86,44.446,75.559,47.669,72.341c2.891-2.891,6-2,9.777-6.668S62,54.782,53.669,46.341,39,38.778,34.333,42.556Zm-4.887,35-1.891,1.891a.417.417,0,0,1-.668,0l-6.332-6.332a.417.417,0,0,1,0-.668l1.891-1.891a.417.417,0,0,1,.668,0l6.332,6.332C29.668,77,29.668,77.332,29.445,77.555Zm15.445-15a5.342,5.342,0,1,1,0-7.555A5.3,5.3,0,0,1,44.89,62.555Z"/>
    <path id="Path_17" data-name="Path 17" d="M78.555,18A.51.51,0,0,0,78,18L52.445,42.668a.343.343,0,0,0,0,.445c.777.668,1.555,1.332,2.332,2.109s1.445,1.555,2.109,2.332a.343.343,0,0,0,.445,0L82,22a.51.51,0,0,0,0-.555Z"/>
    <path id="Path_18" data-name="Path 18" d="M96.109,9a3.169,3.169,0,0,1-.332-1.668c.109-.445-.223-.668-.332-1.109-.109-.332.332-.891-.332-1.555S94,4.445,93.558,4.336,93,3.891,92.449,4a3.026,3.026,0,0,1-1.668-.332c-.336,0-.781.551-.781.551s-1,1-2.332,2.445a1.347,1.347,0,0,0-1.777,0,1.347,1.347,0,0,0,0,1.777L85,9.336a1.347,1.347,0,0,0-1.777,0,1.347,1.347,0,0,0,0,1.777,8.263,8.263,0,0,1-1,1A1.259,1.259,0,1,0,80.554,14l-1.445,2.445a.278.278,0,0,0,.109.445l3.668,3.668a.673.673,0,0,0,.445.109l2.445-1.445a1.259,1.259,0,1,0,1.887-1.668,8.263,8.263,0,0,0,1-1,1.257,1.257,0,0,0,1.777-1.777l.891-.891a1.257,1.257,0,1,0,1.777-1.777A18.973,18.973,0,0,0,95.777,10a.945.945,0,0,0,.332-1ZM83,16.109a.845.845,0,0,1-.445.223c-.223,0-.332,0-.445-.223a.845.845,0,0,1-.223-.445c0-.223,0-.332.223-.445l7-7.445a.581.581,0,0,1,.445-.223c.223,0,.332,0,.445.223a.677.677,0,0,1,0,.891ZM92.332,11l-7.445,7a.845.845,0,0,1-.445.223A.576.576,0,0,1,84,18a.845.845,0,0,1-.223-.445A.843.843,0,0,1,84,17.109L91.445,10a.845.845,0,0,1,.445-.223.576.576,0,0,1,.445.223.833.833,0,0,1,0,1Z"/>
  </g>
</svg>
