<?xml version="1.0" encoding="UTF-8"?>
<svg width="100pt" height="100pt" version="1.1" viewBox="0 0 100 100" xmlns="http://www.w3.org/2000/svg">
 <g>
  <path d="m35.199 42.961c0.23828-1.8398 0.87891-6.6406 2.1602-8.3984l0.16016-0.16016c0.39844-0.32031 2.1602-1.8398 3.1992-2.0781 0 0 8.5586-2.1602 9.2812-2.3203 0 0 2.6406-0.80078 6.5586 0.23828l9.1992 2.9609c0.078126 0 0.23828 0.078125 0.32031 0.16016 0.16016 0.078125 0.64062 0.23828 1.6016-0.078125l2-0.64062c0.71875-0.23828 1.5195 0 2 0.64062 0.64062 0.96094 1.6016 2.6406 2.7188 5.8398 0 0 2.8789 7.3594 1.6797 8.3203 0 0-2.3984 2.1602-3.5195 2.8008 0 0-0.64062 0.48047-2.0781-0.64062 0 0-10.879-7.4414-11.922-8.1602-0.80078-0.55859-6.6406-4-10.48-4.3203-0.96094-0.078125-4.5586-0.64062-6 2.3203v0.078126c-0.16016 0.39844-1.7617 3.6016-4 4.3984 0 0-1.0391 0.39844-2.2383-0.078125-0.39844-0.003906-0.71875-0.40234-0.64062-0.88281z"/>
  <path d="m33.922 58.719c-0.39844 1.5195-1.5195 2.4805-2.5586 2.2383-1.0391-0.23828-1.6797-1.8398-1.2812-3.2812 0.39844-1.4414 1.7617-2.4805 2.7188-2.1602 1.1211 0.16406 1.5195 1.7656 1.1211 3.2031z"/>
  <path d="m44.48 64.398c-0.64062 1.3594-2 3.5195-3.8398 2.4805-2-1.1992-0.96094-3.2812 0.078125-4.7188 0.96094-1.2812 2.5586-2 3.4414-1.5195 1.0391 0.48047 1.0391 2.3984 0.32031 3.7578z"/>
  <path d="m38.801 61.762c-0.64062 1.3594-1.7617 3.2812-3.6016 2.1602-1.9219-1.1992-0.96094-2.9609 0.078125-4.3984 0.87891-1.1992 2.4805-2 3.4414-1.5195 0.96094 0.47656 0.72266 2.3945 0.082031 3.7578z"/>
  <path d="m48.801 67.84c-0.16016 1.3594-1.0391 2.2383-2.3203 2.2383s-2.3203-0.87891-2.3203-2.2383 1.3594-3.1211 2.9609-2.8008c1.2773 0.16016 1.8398 1.4414 1.6797 2.8008z"/>
  <path d="m24.32 47.762c-0.48047-0.39844-0.87891-0.96094-0.71875-1.6016l4-12.32c0.32031-1.0391 1.1992-1.9219 2.2383-1.6016l4.0781 1.9219c0.48047 0.23828 0.64062 0.71875 0.55859 1.1992 0 0-3.1992 8.3984-1.3594 10 0 0 5.7617 5.6016 11.039-4.0781 0 0 0.55859-2.5586 6.3984-0.87891 0 0 12.719 4.8008 21.52 14.559 0.32031 0.32031 0.48047 0.80078 0.55859 1.2812 0.078126 0.96094-0.23828 2.4805-2.3984 2.8008 0 0-2.5586-0.32031-2.8789-0.87891 0 0 1.8398 6.3203-5.6016 4.6406 0 0 0.23828 5.0391-6.5586 4.0781 0 0 0.32031 4-4.2383 3.2812 0 0-1.6797 0.16016-0.48047-2.0781 0 0 1.3594-4.1602-3.4414-5.1211 0 0 0.64062-5.6797-5.3594-4.7188 0 0-1.3594-3.6016-5.8398-2.2383 0 0-1.7617-5.8398-6.6406-2 0.003907-0.085937-0.95703-3.1289-4.875-6.2461z"/>
 </g>
</svg>
