<?xml version="1.0" encoding="UTF-8"?>
<svg width="100pt" height="100pt" version="1.1" viewBox="0 0 100 100" xmlns="http://www.w3.org/2000/svg">
 <path d="m24.355 5c-4.9023 0-9.3555 4.4609-9.3555 9.3594v64.324c0 4.8984 4.4609 9.3516 9.3555 9.3516h4.6719v6.9648l5.375-5.5352 5.375 5.5352v-6.9648h45.219v-1.4766h-45.219v-0.71484h43.391c-0.20703-0.17188-0.40625-0.35156-0.59766-0.53516h-42.789v-0.71875h42.113c-0.14844-0.17188-0.28516-0.35547-0.42188-0.53516h-41.695v-0.71875h41.207c-0.10938-0.17578-0.21484-0.35547-0.3125-0.53906h-40.898v-0.71875h40.551c-0.074219-0.17578-0.14453-0.35547-0.20703-0.53516h-40.344v-0.71875h40.125c-0.046876-0.17578-0.089844-0.35547-0.125-0.53516h-39.996v-0.71875h39.875c-0.019532-0.17578-0.019532-0.35547-0.027344-0.53516h-39.848v-0.71875h39.848c0.007812-0.17969 0.011719-0.35938 0.03125-0.53516h-39.879v-0.71875h40c0.035156-0.17969 0.078125-0.35938 0.125-0.53516h-63.082c0.078126-0.24219 0.16797-0.48438 0.26953-0.71875h63.035c0.066406-0.17969 0.13281-0.35938 0.20703-0.53516h-62.984c0.12891-0.24609 0.26953-0.48828 0.42188-0.71875h62.91c0.097656-0.18359 0.20312-0.35938 0.3125-0.53516h-62.84c0.19141-0.25 0.39844-0.48828 0.61719-0.71875h62.707c0.13672-0.18359 0.27344-0.36328 0.42188-0.53906h-62.562c0.30469-0.26172 0.62891-0.5 0.96484-0.71875h62.27c0.19141-0.1875 0.39063-0.36719 0.59766-0.53906h-61.902c0.96484-0.44922 2.0117-0.71094 3.0898-0.71094h60.645v-65.801zm41.742 13.199v28.266c0 2.3281-2.2852 4.9258-5.2695 6.4219-3.4766 1.7383-6.793 1.3125-7.418-1.0156-0.625-2.332 1.6836-5.6328 5.1602-7.3711 2.9297-1.4688 5.6562-1.3438 6.8164 0.13281v-22.516l-21.359 5.3594v24.262c0 2.3281-2.2617 5.0156-5.2461 6.5078-3.4766 1.7383-6.793 1.4688-7.4141-0.86328-0.625-2.332 1.6836-5.6328 5.1562-7.3711 2.9336-1.4688 5.6562-1.3672 6.8164 0.11328v-26.277zm-49.43 58.871h12.359v0.71875h-12.484c0.03125-0.24219 0.070312-0.48047 0.125-0.71875zm-0.17188 1.2539h12.531v0.71875h-12.531c-0.007813-0.11719-0.019532-0.23828-0.019532-0.35547 0-0.12109 0.011719-0.24219 0.019532-0.36328zm0.042968 1.2539h12.484v0.71875h-12.359c-0.054687-0.23828-0.097656-0.47656-0.12891-0.71875zm0.27734 1.2539h12.211v0.71875h-11.941c-0.10156-0.23438-0.19141-0.47266-0.26953-0.71875zm0.52734 1.2539h11.684v0.71875h-11.262c-0.15234-0.23047-0.29297-0.47266-0.42188-0.71875zm0.80469 1.2539h10.875v0.71875h-10.258c-0.21875-0.22656-0.42578-0.46484-0.61719-0.71875zm1.1836 1.2539h9.6953v0.71875h-8.7305c-0.33594-0.21875-0.66016-0.45703-0.96484-0.71875zm1.9297 1.2539h7.7656v0.71484h-4.6719c-1.0781 0-2.1289-0.26172-3.0938-0.71484z"/>
</svg>
