<svg xmlns="http://www.w3.org/2000/svg" viewBox="8764.001 3890 83.61 94.374">
  <g id="np_list_865931_000000" transform="translate(8755.607 3887.476)">
    <path id="Path_14" data-name="Path 14" d="M60,30v2.7a.937.937,0,0,1-.9.5H41.2a1.047,1.047,0,0,1-.9-.5V30h-5V70.3H65L64.9,30ZM43.3,62.8H40.9a1.1,1.1,0,0,1,0-2.2h2.4a1.1,1.1,0,1,1,0,2.2Zm0-7H40.9a1.1,1.1,0,0,1,0-2.2h2.4a1.1,1.1,0,0,1,0,2.2Zm0-7H40.9a1.1,1.1,0,0,1,0-2.2h2.4a1.1,1.1,0,0,1,0,2.2Zm0-7.3H40.9a1.1,1.1,0,0,1,0-2.2h2.4a1.1,1.1,0,1,1,0,2.2Zm16,21.3H47.5a1.1,1.1,0,0,1,0-2.2H59.3a1.1,1.1,0,0,1,0,2.2Zm0-7H47.5a1.1,1.1,0,0,1,0-2.2H59.3a1.1,1.1,0,0,1,0,2.2Zm0-7H47.5a1.1,1.1,0,0,1,0-2.2H59.3a1.1,1.1,0,1,1,0,2.2Zm0-7.3H47.5a1.1,1.1,0,1,1,0-2.2H59.3a1.1,1.1,0,1,1,0,2.2Z"/>
    <path id="Path_15" data-name="Path 15" d="M88.4,23.5,53.8,3.5a7.128,7.128,0,0,0-7.2,0l-34.6,20a7.312,7.312,0,0,0-3.6,6.2v40a7.054,7.054,0,0,0,3.6,6.2l34.6,20a7.477,7.477,0,0,0,3.6,1,6.542,6.542,0,0,0,3.6-1l34.6-20A7.312,7.312,0,0,0,92,69.7v-40A7.315,7.315,0,0,0,88.4,23.5ZM66.9,72.1a1.139,1.139,0,0,1-.8.3l-31.8,0a1.11,1.11,0,0,1-1.1-1.1V28.9a1.11,1.11,0,0,1,1.1-1.1h6.1v-2a.937.937,0,0,1,.9-.5H46c.5-2.3,2.2-4,4.3-4s3.8,1.7,4.3,4h4.7a1.047,1.047,0,0,1,.9.5v1.9h6a1.11,1.11,0,0,1,1.1,1.1l.1,42.4a3.59,3.59,0,0,1-.5.906Z"/>
  </g>
</svg>
