<?xml version="1.0" encoding="UTF-8"?>
<svg width="174px" height="36px" viewBox="0 0 174 36" version="1.1" xmlns="http://www.w3.org/2000/svg" xmlns:xlink="http://www.w3.org/1999/xlink">
    <!-- Generator: Sketch 43.1 (39012) - http://www.bohemiancoding.com/sketch -->
    <title>logo</title>
    <desc>Created with Sketch.</desc>
    <defs></defs>
    <g id="Page-1" stroke="none" stroke-width="1" fill="none" fill-rule="evenodd">
        <g id="logo" fill="#2C81EC">
            <path d="M43.32,11.74 L41.62,11.74 C41.6466668,12.3800032 41.7799988,12.9233311 42.02,13.37 C42.2600012,13.8166689 42.579998,14.1766653 42.98,14.45 C43.380002,14.7233347 43.8399974,14.9199994 44.36,15.04 C44.8800026,15.1600006 45.4266638,15.22 46,15.22 C46.5200026,15.22 47.0433307,15.1700005 47.57,15.07 C48.0966693,14.9699995 48.5699979,14.7933346 48.99,14.54 C49.4100021,14.2866654 49.7499987,13.9533354 50.01,13.54 C50.2700013,13.1266646 50.4,12.6066698 50.4,11.98 C50.4,11.4866642 50.3033343,11.073335 50.11,10.74 C49.9166657,10.406665 49.6633349,10.1300011 49.35,9.91 C49.0366651,9.6899989 48.6766687,9.513334 48.27,9.38 C47.8633313,9.246666 47.4466688,9.1333338 47.02,9.04 C46.619998,8.9466662 46.220002,8.8566671 45.82,8.77 C45.419998,8.6833329 45.0600016,8.5766673 44.74,8.45 C44.4199984,8.3233327 44.1566677,8.1633343 43.95,7.97 C43.7433323,7.7766657 43.64,7.5333348 43.64,7.24 C43.64,6.973332 43.706666,6.7566675 43.84,6.59 C43.973334,6.4233325 44.1466656,6.2900005 44.36,6.19 C44.5733344,6.0899995 44.8099987,6.0200002 45.07,5.98 C45.3300013,5.9399998 45.5866654,5.92 45.84,5.92 C46.1200014,5.92 46.3966653,5.9499997 46.67,6.01 C46.9433347,6.0700003 47.1933322,6.166666 47.42,6.3 C47.6466678,6.433334 47.8333326,6.6099989 47.98,6.83 C48.1266674,7.0500011 48.2133332,7.326665 48.24,7.66 L49.94,7.66 C49.8999998,7.0333302 49.7666678,6.5100021 49.54,6.09 C49.3133322,5.6699979 49.0100019,5.3366679 48.63,5.09 C48.2499981,4.8433321 47.8133358,4.6700005 47.32,4.57 C46.8266642,4.4699995 46.2866696,4.42 45.7,4.42 C45.2466644,4.42 44.7900023,4.4766661 44.33,4.59 C43.8699977,4.7033339 43.4566685,4.8766655 43.09,5.11 C42.7233315,5.3433345 42.4233345,5.6466648 42.19,6.02 C41.9566655,6.3933352 41.84,6.8399974 41.84,7.36 C41.84,8.02667 42.006665,8.5466648 42.34,8.92 C42.673335,9.2933352 43.0899975,9.5833323 43.59,9.79 C44.0900025,9.9966677 44.6333304,10.1566661 45.22,10.27 C45.8066696,10.3833339 46.3499975,10.5099993 46.85,10.65 C47.3500025,10.7900007 47.766665,10.9733322 48.1,11.2 C48.433335,11.4266678 48.6,11.7599978 48.6,12.2 C48.6,12.5200016 48.5200008,12.7833323 48.36,12.99 C48.1999992,13.1966677 47.9966679,13.3533328 47.75,13.46 C47.5033321,13.5666672 47.2333348,13.6399998 46.94,13.68 C46.6466652,13.7200002 46.366668,13.74 46.1,13.74 C45.7533316,13.74 45.4166683,13.706667 45.09,13.64 C44.7633317,13.573333 44.4700013,13.4633341 44.21,13.31 C43.9499987,13.1566659 43.7400008,12.9500013 43.58,12.69 C43.4199992,12.4299987 43.3333334,12.1133352 43.32,11.74 Z M54.08,2.8 L54.08,0.72 L52.38,0.72 L52.38,2.8 L54.08,2.8 Z M52.38,4.66 L52.38,15 L54.08,15 L54.08,4.66 L52.38,4.66 Z M56.72,4.66 L56.72,15 L58.42,15 L58.42,8.56 C58.42,8.359999 58.4699995,8.1100015 58.57,7.81 C58.6700005,7.5099985 58.8299989,7.2200014 59.05,6.94 C59.2700011,6.6599986 59.5566649,6.420001 59.91,6.22 C60.2633351,6.019999 60.6866642,5.92 61.18,5.92 C61.5666686,5.92 61.8833321,5.9766661 62.13,6.09 C62.3766679,6.2033339 62.5733326,6.3633323 62.72,6.57 C62.8666674,6.7766677 62.9699997,7.0199986 63.03,7.3 C63.0900003,7.5800014 63.12,7.886665 63.12,8.22 L63.12,15 L64.82,15 L64.82,8.56 C64.82,7.759996 65.0599976,7.1200024 65.54,6.64 C66.0200024,6.1599976 66.6799958,5.92 67.52,5.92 C67.9333354,5.92 68.2699987,5.9799994 68.53,6.1 C68.7900013,6.2200006 68.9933326,6.3833323 69.14,6.59 C69.2866674,6.7966677 69.3866664,7.0399986 69.44,7.32 C69.4933336,7.6000014 69.52,7.8999984 69.52,8.22 L69.52,15 L71.22,15 L71.22,7.42 C71.22,6.886664 71.1366675,6.4300019 70.97,6.05 C70.8033325,5.6699981 70.5700015,5.3600012 70.27,5.12 C69.9699985,4.8799988 69.6100021,4.7033339 69.19,4.59 C68.7699979,4.4766661 68.3000026,4.42 67.78,4.42 C67.0999966,4.42 66.4766695,4.5733318 65.91,4.88 C65.3433305,5.1866682 64.8866684,5.6199972 64.54,6.18 C64.3266656,5.5399968 63.9600026,5.086668 63.44,4.82 C62.9199974,4.553332 62.3400032,4.42 61.7,4.42 C60.2466594,4.42 59.1333372,5.0066608 58.36,6.18 L58.32,6.18 L58.32,4.66 L56.72,4.66 Z M73.84,4.66 L75.54,4.66 L75.54,6.06 L75.58,6.06 C75.8600014,5.4866638 76.299997,5.0700013 76.9,4.81 C77.500003,4.5499987 78.1599964,4.42 78.88,4.42 C79.680004,4.42 80.3766637,4.5666652 80.97,4.86 C81.5633363,5.1533348 82.0566647,5.5499975 82.45,6.05 C82.8433353,6.5500025 83.139999,7.1266634 83.34,7.78 C83.540001,8.4333366 83.64,9.126663 83.64,9.86 C83.64,10.593337 83.5433343,11.2866634 83.35,11.94 C83.1566657,12.5933366 82.8633353,13.1633309 82.47,13.65 C82.0766647,14.1366691 81.5833363,14.5199986 80.99,14.8 C80.3966637,15.0800014 79.7066706,15.22 78.92,15.22 C78.6666654,15.22 78.3833349,15.1933336 78.07,15.14 C77.7566651,15.0866664 77.4466682,15.0000006 77.14,14.88 C76.8333318,14.7599994 76.5433347,14.5966677 76.27,14.39 C75.9966653,14.1833323 75.7666676,13.9266682 75.58,13.62 L75.54,13.62 L75.54,18.94 L73.84,18.94 L73.84,4.66 Z M81.84,9.74 C81.84,9.2599976 81.7766673,8.7900023 81.65,8.33 C81.5233327,7.8699977 81.3300013,7.4600018 81.07,7.1 C80.8099987,6.7399982 80.4766687,6.4533344 80.07,6.24 C79.6633313,6.0266656 79.1866694,5.92 78.64,5.92 C78.0666638,5.92 77.580002,6.0333322 77.18,6.26 C76.779998,6.4866678 76.4533346,6.7833315 76.2,7.15 C75.9466654,7.5166685 75.7633339,7.933331 75.65,8.4 C75.5366661,8.866669 75.48,9.3399976 75.48,9.82 C75.48,10.3266692 75.5399994,10.8166643 75.66,11.29 C75.7800006,11.7633357 75.9699987,12.1799982 76.23,12.54 C76.4900013,12.9000018 76.8266646,13.1899989 77.24,13.41 C77.6533354,13.6300011 78.1533304,13.74 78.74,13.74 C79.3266696,13.74 79.8166647,13.6266678 80.21,13.4 C80.6033353,13.1733322 80.9199988,12.8733352 81.16,12.5 C81.4000012,12.1266648 81.5733328,11.7000024 81.68,11.22 C81.7866672,10.7399976 81.84,10.2466692 81.84,9.74 Z M85.74,0.72 L85.74,15 L87.44,15 L87.44,0.72 L85.74,0.72 Z M97.26,8.84 C97.2333332,8.439998 97.1433341,8.0600018 96.99,7.7 C96.8366659,7.3399982 96.6300013,7.0300013 96.37,6.77 C96.1099987,6.5099987 95.8033351,6.3033341 95.45,6.15 C95.0966649,5.9966659 94.7066688,5.92 94.28,5.92 C93.8399978,5.92 93.4433351,5.9966659 93.09,6.15 C92.7366649,6.3033341 92.4333346,6.513332 92.18,6.78 C91.9266654,7.046668 91.7266674,7.3566649 91.58,7.71 C91.4333326,8.0633351 91.3466668,8.439998 91.32,8.84 L97.26,8.84 Z M98.9,11.72 C98.6733322,12.8800058 98.1733372,13.7533304 97.4,14.34 C96.6266628,14.9266696 95.6533392,15.22 94.48,15.22 C93.6533292,15.22 92.9366697,15.086668 92.33,14.82 C91.7233303,14.553332 91.2133354,14.1800024 90.8,13.7 C90.3866646,13.2199976 90.0766677,12.64667 89.87,11.98 C89.6633323,11.31333 89.5466668,10.5866706 89.52,9.8 C89.52,9.0133294 89.6399988,8.2933366 89.88,7.64 C90.1200012,6.9866634 90.4566645,6.4200024 90.89,5.94 C91.3233355,5.4599976 91.8366637,5.086668 92.43,4.82 C93.0233363,4.553332 93.6733298,4.42 94.38,4.42 C95.3000046,4.42 96.0633303,4.6099981 96.67,4.99 C97.2766697,5.3700019 97.7633315,5.8533304 98.13,6.44 C98.4966685,7.0266696 98.7499993,7.6666632 98.89,8.36 C99.0300007,9.0533368 99.0866668,9.7133302 99.06,10.34 L91.32,10.34 C91.3066666,10.7933356 91.3599994,11.2233313 91.48,11.63 C91.6000006,12.0366687 91.793332,12.3966651 92.06,12.71 C92.326668,13.0233349 92.6666646,13.2733324 93.08,13.46 C93.4933354,13.6466676 93.9799972,13.74 94.54,13.74 C95.2600036,13.74 95.8499977,13.573335 96.31,13.24 C96.7700023,12.906665 97.0733326,12.4000034 97.22,11.72 L98.9,11.72 Z M49.12,25.3 L51.9,25.3 C51.8599998,24.63333 51.7000014,24.0566691 51.42,23.57 C51.1399986,23.0833309 50.7766689,22.6766683 50.33,22.35 C49.8833311,22.0233317 49.3766695,21.7800008 48.81,21.62 C48.2433305,21.4599992 47.6533364,21.38 47.04,21.38 C46.1999958,21.38 45.4533366,21.5199986 44.8,21.8 C44.1466634,22.0800014 43.5933356,22.4699975 43.14,22.97 C42.6866644,23.4700025 42.3433345,24.0633299 42.11,24.75 C41.8766655,25.4366701 41.76,26.179996 41.76,26.98 C41.76,27.7533372 41.8866654,28.4633301 42.14,29.11 C42.3933346,29.7566699 42.7466644,30.313331 43.2,30.78 C43.6533356,31.246669 44.2033301,31.6099987 44.85,31.87 C45.4966699,32.1300013 46.2066628,32.26 46.98,32.26 C48.3533402,32.26 49.4799956,31.9000036 50.36,31.18 C51.2400044,30.4599964 51.7733324,29.4133402 51.96,28.04 L49.22,28.04 C49.1266662,28.6800032 48.8966685,29.1899981 48.53,29.57 C48.1633315,29.9500019 47.6400034,30.14 46.96,30.14 C46.5199978,30.14 46.1466682,30.040001 45.84,29.84 C45.5333318,29.639999 45.2900009,29.3833349 45.11,29.07 C44.9299991,28.7566651 44.8000004,28.4066686 44.72,28.02 C44.6399996,27.6333314 44.6,27.2533352 44.6,26.88 C44.6,26.4933314 44.6399996,26.1033353 44.72,25.71 C44.8000004,25.3166647 44.9366657,24.9566683 45.13,24.63 C45.3233343,24.3033317 45.5733318,24.0366677 45.88,23.83 C46.1866682,23.6233323 46.5666644,23.52 47.02,23.52 C48.2333394,23.52 48.9333324,24.1133274 49.12,25.3 Z M53.56,17.72 L53.56,32 L56.4,32 L56.4,26.58 C56.4,25.5266614 56.5733316,24.7700023 56.92,24.31 C57.2666684,23.8499977 57.8266628,23.62 58.6,23.62 C59.2800034,23.62 59.753332,23.8299979 60.02,24.25 C60.286668,24.6700021 60.42,25.3066624 60.42,26.16 L60.42,32 L63.26,32 L63.26,25.64 C63.26,24.9999968 63.2033339,24.4166693 63.09,23.89 C62.9766661,23.3633307 62.7800014,22.9166685 62.5,22.55 C62.2199986,22.1833315 61.8366691,21.8966677 61.35,21.69 C60.8633309,21.4833323 60.2400038,21.38 59.48,21.38 C58.946664,21.38 58.4000028,21.5166653 57.84,21.79 C57.2799972,22.0633347 56.8200018,22.499997 56.46,23.1 L56.4,23.1 L56.4,17.72 L53.56,17.72 Z M75.12,32 L75.12,21.66 L72.28,21.66 L72.28,27.08 C72.28,28.1333386 72.1066684,28.8899977 71.76,29.35 C71.4133316,29.8100023 70.8533372,30.04 70.08,30.04 C69.3999966,30.04 68.926668,29.8300021 68.66,29.41 C68.393332,28.9899979 68.26,28.3533376 68.26,27.5 L68.26,21.66 L65.42,21.66 L65.42,28.02 C65.42,28.6600032 65.4766661,29.2433307 65.59,29.77 C65.7033339,30.2966693 65.8999986,30.7433315 66.18,31.11 C66.4600014,31.4766685 66.8433309,31.759999 67.33,31.96 C67.8166691,32.160001 68.4399962,32.26 69.2,32.26 C69.800003,32.26 70.3866638,32.126668 70.96,31.86 C71.5333362,31.593332 71.9999982,31.160003 72.36,30.56 L72.42,30.56 L72.42,32 L75.12,32 Z M77.28,21.66 L77.28,32 L80.12,32 L80.12,27.34 C80.12,26.873331 80.1666662,26.440002 80.26,26.04 C80.3533338,25.639998 80.5099989,25.2900015 80.73,24.99 C80.9500011,24.6899985 81.2399982,24.4533342 81.6,24.28 C81.9600018,24.1066658 82.3999974,24.02 82.92,24.02 C83.0933342,24.02 83.2733324,24.0299999 83.46,24.05 C83.6466676,24.0700001 83.806666,24.0933332 83.94,24.12 L83.94,21.48 C83.7133322,21.413333 83.5066676,21.38 83.32,21.38 C82.9599982,21.38 82.613335,21.4333328 82.28,21.54 C81.946665,21.6466672 81.6333348,21.7966657 81.34,21.99 C81.0466652,22.1833343 80.7866678,22.4166653 80.56,22.69 C80.3333322,22.9633347 80.153334,23.2599984 80.02,23.58 L79.98,23.58 L79.98,21.66 L77.28,21.66 Z M92.1,25.3 L94.88,25.3 C94.8399998,24.63333 94.6800014,24.0566691 94.4,23.57 C94.1199986,23.0833309 93.7566689,22.6766683 93.31,22.35 C92.8633311,22.0233317 92.3566695,21.7800008 91.79,21.62 C91.2233305,21.4599992 90.6333364,21.38 90.02,21.38 C89.1799958,21.38 88.4333366,21.5199986 87.78,21.8 C87.1266634,22.0800014 86.5733356,22.4699975 86.12,22.97 C85.6666644,23.4700025 85.3233345,24.0633299 85.09,24.75 C84.8566655,25.4366701 84.74,26.179996 84.74,26.98 C84.74,27.7533372 84.8666654,28.4633301 85.12,29.11 C85.3733346,29.7566699 85.7266644,30.313331 86.18,30.78 C86.6333356,31.246669 87.1833301,31.6099987 87.83,31.87 C88.4766699,32.1300013 89.1866628,32.26 89.96,32.26 C91.3333402,32.26 92.4599956,31.9000036 93.34,31.18 C94.2200044,30.4599964 94.7533324,29.4133402 94.94,28.04 L92.2,28.04 C92.1066662,28.6800032 91.8766685,29.1899981 91.51,29.57 C91.1433315,29.9500019 90.6200034,30.14 89.94,30.14 C89.4999978,30.14 89.1266682,30.040001 88.82,29.84 C88.5133318,29.639999 88.2700009,29.3833349 88.09,29.07 C87.9099991,28.7566651 87.7800004,28.4066686 87.7,28.02 C87.6199996,27.6333314 87.58,27.2533352 87.58,26.88 C87.58,26.4933314 87.6199996,26.1033353 87.7,25.71 C87.7800004,25.3166647 87.9166657,24.9566683 88.11,24.63 C88.3033343,24.3033317 88.5533318,24.0366677 88.86,23.83 C89.1666682,23.6233323 89.5466644,23.52 90,23.52 C91.2133394,23.52 91.9133324,24.1133274 92.1,25.3 Z M96.54,17.72 L96.54,32 L99.38,32 L99.38,26.58 C99.38,25.5266614 99.5533316,24.7700023 99.9,24.31 C100.246668,23.8499977 100.806663,23.62 101.58,23.62 C102.260003,23.62 102.733332,23.8299979 103,24.25 C103.266668,24.6700021 103.4,25.3066624 103.4,26.16 L103.4,32 L106.24,32 L106.24,25.64 C106.24,24.9999968 106.183334,24.4166693 106.07,23.89 C105.956666,23.3633307 105.760001,22.9166685 105.48,22.55 C105.199999,22.1833315 104.816669,21.8966677 104.33,21.69 C103.843331,21.4833323 103.220004,21.38 102.46,21.38 C101.926664,21.38 101.380003,21.5166653 100.82,21.79 C100.259997,22.0633347 99.8000018,22.499997 99.44,23.1 L99.38,23.1 L99.38,17.72 L96.54,17.72 Z M108.66,21.66 L110.36,21.66 L110.36,23.06 L110.4,23.06 C110.680001,22.4866638 111.119997,22.0700013 111.72,21.81 C112.320003,21.5499987 112.979996,21.42 113.7,21.42 C114.500004,21.42 115.196664,21.5666652 115.79,21.86 C116.383336,22.1533348 116.876665,22.5499975 117.27,23.05 C117.663335,23.5500025 117.959999,24.1266634 118.16,24.78 C118.360001,25.4333366 118.46,26.126663 118.46,26.86 C118.46,27.593337 118.363334,28.2866634 118.17,28.94 C117.976666,29.5933366 117.683335,30.1633309 117.29,30.65 C116.896665,31.1366691 116.403336,31.5199986 115.81,31.8 C115.216664,32.0800014 114.526671,32.22 113.74,32.22 C113.486665,32.22 113.203335,32.1933336 112.89,32.14 C112.576665,32.0866664 112.266668,32.0000006 111.96,31.88 C111.653332,31.7599994 111.363335,31.5966677 111.09,31.39 C110.816665,31.1833323 110.586668,30.9266682 110.4,30.62 L110.36,30.62 L110.36,35.94 L108.66,35.94 L108.66,21.66 Z M116.66,26.74 C116.66,26.2599976 116.596667,25.7900023 116.47,25.33 C116.343333,24.8699977 116.150001,24.4600018 115.89,24.1 C115.629999,23.7399982 115.296669,23.4533344 114.89,23.24 C114.483331,23.0266656 114.006669,22.92 113.46,22.92 C112.886664,22.92 112.400002,23.0333322 112,23.26 C111.599998,23.4866678 111.273335,23.7833315 111.02,24.15 C110.766665,24.5166685 110.583334,24.933331 110.47,25.4 C110.356666,25.866669 110.3,26.3399976 110.3,26.82 C110.3,27.3266692 110.359999,27.8166643 110.48,28.29 C110.600001,28.7633357 110.789999,29.1799982 111.05,29.54 C111.310001,29.9000018 111.646665,30.1899989 112.06,30.41 C112.473335,30.6300011 112.97333,30.74 113.56,30.74 C114.14667,30.74 114.636665,30.6266678 115.03,30.4 C115.423335,30.1733322 115.739999,29.8733352 115.98,29.5 C116.220001,29.1266648 116.393333,28.7000024 116.5,28.22 C116.606667,27.7399976 116.66,27.2466692 116.66,26.74 Z M120.56,17.72 L120.56,32 L122.26,32 L122.26,17.72 L120.56,17.72 Z M134.06,31.96 C133.766665,32.1333342 133.360003,32.22 132.84,32.22 C132.399998,32.22 132.050001,32.0966679 131.79,31.85 C131.529999,31.6033321 131.4,31.2000028 131.4,30.64 C130.933331,31.2000028 130.390003,31.6033321 129.77,31.85 C129.149997,32.0966679 128.480004,32.22 127.76,32.22 C127.293331,32.22 126.850002,32.1666672 126.43,32.06 C126.009998,31.9533328 125.646668,31.7866678 125.34,31.56 C125.033332,31.3333322 124.790001,31.0366685 124.61,30.67 C124.429999,30.3033315 124.34,29.8600026 124.34,29.34 C124.34,28.7533304 124.439999,28.2733352 124.64,27.9 C124.840001,27.5266648 125.103332,27.2233345 125.43,26.99 C125.756668,26.7566655 126.129998,26.5800006 126.55,26.46 C126.970002,26.3399994 127.399998,26.2400004 127.84,26.16 C128.306669,26.0666662 128.749998,25.9966669 129.17,25.95 C129.590002,25.9033331 129.959998,25.8366671 130.28,25.75 C130.600002,25.6633329 130.853332,25.5366675 131.04,25.37 C131.226668,25.2033325 131.32,24.9600016 131.32,24.64 C131.32,24.2666648 131.250001,23.9666678 131.11,23.74 C130.969999,23.5133322 130.790001,23.3400006 130.57,23.22 C130.349999,23.0999994 130.103335,23.0200002 129.83,22.98 C129.556665,22.9399998 129.286668,22.92 129.02,22.92 C128.299996,22.92 127.700002,23.0566653 127.22,23.33 C126.739998,23.6033347 126.48,24.1199962 126.44,24.88 L124.74,24.88 C124.766667,24.2399968 124.899999,23.7000022 125.14,23.26 C125.380001,22.8199978 125.699998,22.4633347 126.1,22.19 C126.500002,21.9166653 126.956664,21.7200006 127.47,21.6 C127.983336,21.4799994 128.53333,21.42 129.12,21.42 C129.586669,21.42 130.049998,21.453333 130.51,21.52 C130.970002,21.586667 131.386665,21.7233323 131.76,21.93 C132.133335,22.1366677 132.433332,22.4266648 132.66,22.8 C132.886668,23.1733352 133,23.659997 133,24.26 L133,29.58 C133,29.980002 133.023333,30.2733324 133.07,30.46 C133.116667,30.6466676 133.273332,30.74 133.54,30.74 C133.686667,30.74 133.859999,30.706667 134.06,30.64 L134.06,31.96 Z M131.3,26.66 C131.086666,26.8200008 130.806668,26.9366663 130.46,27.01 C130.113332,27.0833337 129.750002,27.1433331 129.37,27.19 C128.989998,27.2366669 128.606669,27.2899997 128.22,27.35 C127.833331,27.4100003 127.486668,27.506666 127.18,27.64 C126.873332,27.773334 126.623334,27.9633321 126.43,28.21 C126.236666,28.4566679 126.14,28.7933312 126.14,29.22 C126.14,29.5000014 126.196666,29.7366657 126.31,29.93 C126.423334,30.1233343 126.569999,30.2799994 126.75,30.4 C126.930001,30.5200006 127.139999,30.6066664 127.38,30.66 C127.620001,30.7133336 127.873332,30.74 128.14,30.74 C128.700003,30.74 129.179998,30.6633341 129.58,30.51 C129.980002,30.3566659 130.306665,30.1633345 130.56,29.93 C130.813335,29.6966655 130.999999,29.4433347 131.12,29.17 C131.240001,28.8966653 131.3,28.6400012 131.3,28.4 L131.3,26.66 Z M135.64,21.66 L135.64,32 L137.34,32 L137.34,26.16 C137.34,25.693331 137.403333,25.2633353 137.53,24.87 C137.656667,24.4766647 137.846665,24.1333348 138.1,23.84 C138.353335,23.5466652 138.669998,23.3200008 139.05,23.16 C139.430002,22.9999992 139.879997,22.92 140.4,22.92 C141.053337,22.92 141.566665,23.1066648 141.94,23.48 C142.313335,23.8533352 142.5,24.3599968 142.5,25 L142.5,32 L144.2,32 L144.2,25.2 C144.2,24.6399972 144.143334,24.1300023 144.03,23.67 C143.916666,23.2099977 143.720001,22.813335 143.44,22.48 C143.159999,22.146665 142.793336,21.8866676 142.34,21.7 C141.886664,21.5133324 141.320003,21.42 140.64,21.42 C139.106659,21.42 137.98667,22.0466604 137.28,23.3 L137.24,23.3 L137.24,21.66 L135.64,21.66 Z M146.76,21.66 L146.76,32 L148.46,32 L148.46,26.16 C148.46,25.693331 148.523333,25.2633353 148.65,24.87 C148.776667,24.4766647 148.966665,24.1333348 149.22,23.84 C149.473335,23.5466652 149.789998,23.3200008 150.17,23.16 C150.550002,22.9999992 150.999997,22.92 151.52,22.92 C152.173337,22.92 152.686665,23.1066648 153.06,23.48 C153.433335,23.8533352 153.62,24.3599968 153.62,25 L153.62,32 L155.32,32 L155.32,25.2 C155.32,24.6399972 155.263334,24.1300023 155.15,23.67 C155.036666,23.2099977 154.840001,22.813335 154.56,22.48 C154.279999,22.146665 153.913336,21.8866676 153.46,21.7 C153.006664,21.5133324 152.440003,21.42 151.76,21.42 C150.226659,21.42 149.10667,22.0466604 148.4,23.3 L148.36,23.3 L148.36,21.66 L146.76,21.66 Z M165.06,25.84 C165.033333,25.439998 164.943334,25.0600018 164.79,24.7 C164.636666,24.3399982 164.430001,24.0300013 164.17,23.77 C163.909999,23.5099987 163.603335,23.3033341 163.25,23.15 C162.896665,22.9966659 162.506669,22.92 162.08,22.92 C161.639998,22.92 161.243335,22.9966659 160.89,23.15 C160.536665,23.3033341 160.233335,23.513332 159.98,23.78 C159.726665,24.046668 159.526667,24.3566649 159.38,24.71 C159.233333,25.0633351 159.146667,25.439998 159.12,25.84 L165.06,25.84 Z M166.7,28.72 C166.473332,29.8800058 165.973337,30.7533304 165.2,31.34 C164.426663,31.9266696 163.453339,32.22 162.28,32.22 C161.453329,32.22 160.73667,32.086668 160.13,31.82 C159.52333,31.553332 159.013335,31.1800024 158.6,30.7 C158.186665,30.2199976 157.876668,29.64667 157.67,28.98 C157.463332,28.31333 157.346667,27.5866706 157.32,26.8 C157.32,26.0133294 157.439999,25.2933366 157.68,24.64 C157.920001,23.9866634 158.256664,23.4200024 158.69,22.94 C159.123335,22.4599976 159.636664,22.086668 160.23,21.82 C160.823336,21.553332 161.47333,21.42 162.18,21.42 C163.100005,21.42 163.86333,21.6099981 164.47,21.99 C165.07667,22.3700019 165.563332,22.8533304 165.93,23.44 C166.296669,24.0266696 166.549999,24.6666632 166.69,25.36 C166.830001,26.0533368 166.886667,26.7133302 166.86,27.34 L159.12,27.34 C159.106667,27.7933356 159.159999,28.2233313 159.28,28.63 C159.400001,29.0366687 159.593332,29.3966651 159.86,29.71 C160.126668,30.0233349 160.466665,30.2733324 160.88,30.46 C161.293335,30.6466676 161.779997,30.74 162.34,30.74 C163.060004,30.74 163.649998,30.573335 164.11,30.24 C164.570002,29.906665 164.873333,29.4000034 165.02,28.72 L166.7,28.72 Z M168.56,21.66 L168.56,32 L170.26,32 L170.26,27.4 C170.26,26.73333 170.326666,26.1433359 170.46,25.63 C170.593334,25.1166641 170.806665,24.6800018 171.1,24.32 C171.393335,23.9599982 171.779998,23.6866676 172.26,23.5 C172.740002,23.3133324 173.319997,23.22 174,23.22 L174,21.42 C173.079995,21.3933332 172.320003,21.579998 171.72,21.98 C171.119997,22.380002 170.613335,22.9999958 170.2,23.84 L170.16,23.84 L170.16,21.66 L168.56,21.66 Z" id="simple-churchplanner"></path>
            <g id="Group-2" transform="translate(0.000000, 3.000000)" fill-rule="nonzero">
                <g id="Layer_1">
                    <g id="_x23__Group-2">
                        <g id="Group-2_2_">
                            <path d="M35.5651261,8.32148014 C34.8765756,6.70722022 33.8886555,5.25379061 32.6313025,4.00288809 C31.3739496,2.75198556 29.9190126,1.77509025 28.2904412,1.08411552 C26.6019958,0.369314079 24.8177521,0.0119133574 22.9796218,0.0119133574 L13.6632353,0.0119133574 C11.825105,0.0119133574 10.0348739,0.375270758 8.35241597,1.08411552 C6.72983193,1.76913357 5.26890756,2.75198556 4.01155462,3.99693141 C2.75420168,5.24783394 1.77226891,6.69530686 1.08371849,8.31552347 C0.365231092,9.99530686 0.00598739496,11.7703971 0.00598739496,13.5990975 L0.00598739496,16.0413357 C0.00598739496,17.8700361 0.371218487,19.651083 1.08371849,21.3249097 C1.20346639,21.598917 1.32920168,21.8669675 1.46092437,22.1290614 C2.11953782,23.4216606 2.97573529,24.601083 4.01754202,25.6375451 C5.03539916,26.6501805 6.18497899,27.4841155 7.44831933,28.1274368 C7.74768908,28.2763538 8.04705882,28.4193141 8.35840336,28.550361 C10.0468487,29.2651625 11.8310924,29.6225632 13.6692227,29.6225632 L14.0703782,29.6225632 L16.5192227,31.5644404 L18.3094538,32.98213 L20.0996849,31.5644404 L22.5485294,29.6225632 L22.9796218,29.6225632 C24.8177521,29.6225632 26.6079832,29.2592058 28.2904412,28.550361 C28.6017857,28.4193141 28.9011555,28.2763538 29.2005252,28.1274368 C30.4638655,27.4841155 31.6134454,26.6442238 32.6313025,25.6375451 C33.6731092,24.601083 34.5293067,23.4216606 35.1879202,22.1290614 C35.3196429,21.8669675 35.4453782,21.598917 35.5651261,21.3249097 C36.2836134,19.6451264 36.6428571,17.8700361 36.6428571,16.0413357 L36.6428571,13.5990975 C36.6428571,11.7763538 36.2776261,10.0012635 35.5651261,8.32148014 Z M22.9796218,26.7812274 L21.5426471,26.7812274 L19.8242647,28.1453069 L18.3094538,29.3425993 L16.7946429,28.1453069 L15.0762605,26.7812274 L13.6692227,26.7812274 C8.99306723,26.7812274 4.98151261,23.7790614 3.49663866,19.615343 C4.05346639,19.2519856 4.69411765,18.9601083 5.39464286,18.7575812 C4.11334034,18.0070397 3.17930672,16.6191336 2.95777311,14.9750903 C2.92184874,14.7308664 2.90388655,14.4747292 2.90388655,14.2185921 C2.90388655,11.383213 4.99348739,9.0898917 7.56806723,9.0898917 C8.35840336,9.0898917 9.10084034,9.30433213 9.75346639,9.68555957 C11.2263655,10.549278 12.2322479,12.2528881 12.2322479,14.2185921 C12.2322479,16.184296 11.2263655,17.8938628 9.74747899,18.7575812 C10.3821429,18.9362816 10.974895,19.1983755 11.4957983,19.5200361 C12.3759454,18.2155235 13.8608193,17.1969314 15.6630252,16.684657 C13.8608193,15.6362816 12.627416,13.5454874 12.627416,11.1449458 C12.627416,10.4599278 12.7292017,9.80469314 12.9088235,9.19115523 C13.6572479,6.68935018 15.7947479,4.87851986 18.3214286,4.87851986 C20.8481092,4.87851986 22.9915966,6.6833935 23.7340336,9.19115523 C23.9196429,9.80469314 24.0154412,10.4599278 24.0154412,11.1449458 C24.0154412,13.5454874 22.7880252,15.6362816 20.9798319,16.684657 C22.7820378,17.1969314 24.2669118,18.2155235 25.1470588,19.5200361 C25.6679622,19.1983755 26.2547269,18.9422383 26.8953782,18.7575812 C25.4164916,17.8938628 24.4106092,16.1902527 24.4106092,14.2185921 C24.4106092,12.2528881 25.4164916,10.549278 26.8893908,9.68555957 C27.5420168,9.30433213 28.2844538,9.0898917 29.0747899,9.0898917 C31.6493697,9.0898917 33.7389706,11.383213 33.7389706,14.2185921 C33.7389706,14.4747292 33.7210084,14.7308664 33.6910714,14.9750903 C33.4695378,16.6191336 32.5414916,18.0070397 31.2542017,18.7575812 C31.9547269,18.9541516 32.5953782,19.2460289 33.1522059,19.615343 C31.6673319,23.7731047 27.6557773,26.7812274 22.9796218,26.7812274 Z" id="Shape"></path>
                        </g>
                    </g>
                </g>
            </g>
        </g>
    </g>
</svg>