<svg xmlns="http://www.w3.org/2000/svg" xmlns:xlink="http://www.w3.org/1999/xlink" viewBox="5850 1876 168 168">
  <defs>
    <style>
      .cls-1 {
        fill: #673ab7;
        stroke: #95989a;
      }

      .cls-2 {
        fill: #fff;
      }

      .cls-3 {
        stroke: none;
      }

      .cls-4 {
        fill: none;
      }

      .cls-5 {
        filter: url(#Ellipse_2);
      }
    </style>
    <filter id="Ellipse_2" x="5850" y="1876" width="168" height="168" filterUnits="userSpaceOnUse">
      <feOffset dy="3" input="SourceAlpha"/>
      <feGaussianBlur stdDeviation="3" result="blur"/>
      <feFlood flood-opacity="0.161"/>
      <feComposite operator="in" in2="blur"/>
      <feComposite in="SourceGraphic"/>
    </filter>
  </defs>
  <g id="Main_mode" data-name="Main mode" transform="translate(3587 202)">
    <g id="Group_2" data-name="Group 2" transform="translate(-3 -9)">
      <g class="cls-5" transform="matrix(1, 0, 0, 1, -3584, -193)">
        <g id="Ellipse_2-2" data-name="Ellipse 2" class="cls-1" transform="translate(5859 1882)">
          <circle class="cls-3" cx="75" cy="75" r="75"/>
          <circle class="cls-4" cx="75" cy="75" r="74.5"/>
        </g>
      </g>
    </g>
    <path id="np_view_974934_FFFFFF" class="cls-2" d="M82.34,49.488C78.84,36.324,62.715,27.48,49.852,27.48c-12.934,0-29.742,9.035-33.188,22.008L16.527,50l.137.512C20.109,63.48,36.922,72.519,49.852,72.519c12.863,0,28.988-8.844,32.488-22.008L82.477,50ZM49.852,68.523c-11.305,0-25.891-7.582-29.184-18.523,3.289-10.941,17.879-18.523,29.184-18.523,10.977,0,25.2,7.582,28.484,18.523C75.055,60.941,60.828,68.523,49.852,68.523Zm.172-30.387A12.215,12.215,0,1,0,62.239,50.351,12.215,12.215,0,0,0,50.024,38.136Z" transform="translate(2297.473 1704.52)"/>
  </g>
</svg>
