<?xml version="1.0" encoding="UTF-8"?>
<svg width="100pt" height="100pt" version="1.1" viewBox="0 0 100 100" xmlns="http://www.w3.org/2000/svg">
 <path d="m67.648 5.2773c11.922 7.4102 19.844 20.664 19.844 35.719 0 22.5-17.754 40.922-40 41.969v4.0312h-4v-4.0312c-5.2344-0.25391-10.215-1.5039-14.781-3.5-1.0391-0.35938-1.6172-1.6836-1.1797-2.6875 0.4375-1.0078 1.8008-1.4844 2.7734-0.96875 4.6602 2.0352 9.7773 3.1875 15.188 3.1875 21.012 0 38-16.988 38-38 0-13.652-7.1523-25.609-17.938-32.312-0.78516-0.45703-1.1797-1.4883-0.89844-2.3516 0.46094-1.3477 1.8047-1.6094 2.9922-1.0547zm-21.25 2.7188c5.3203 0.13672 10.664 1.5625 15.594 4.4062 15.77 9.1055 21.199 29.324 12.094 45.094-9.1055 15.77-29.324 21.168-45.094 12.062-15.77-9.1055-21.168-29.293-12.062-45.062 6.2578-10.844 17.766-16.801 29.469-16.5zm-0.0625 2c-4.9258-0.12891-9.8281 0.91406-14.25 3.0312-1.3164 3.8516-1.5508 8.0039-1.5938 9.9688-0.074219 3.4258 1.5156 5.5938 3 8 2.125 3.4414 6.4844 5.4141 7 8 1 5 1.4492 12.012 7 12 2.3945 0 3.8398-1.7148 5-4 2.8711-5.6602 1.0039-9.9141 2-15 0.98437-5.0156 6-6.4297 6-11 0-2.668-0.93359-5.7227-2.25-8.25-3.8438-1.7383-7.8867-2.6445-11.906-2.75zm-19.781 43c-2.8984 0.17578-6.5508 0.80469-8.8438 1.7188 2.3398 4.75 5.9141 8.9492 10.594 12.062 1.2227-0.62109 2.7734-1.5391 4.25-2.7812 5.4727-4.8828 3.2344-11-6-11zm30.938 35l2 7h-28l2-7z"/>
</svg>
