<?xml version="1.0" encoding="UTF-8"?>
<svg width="100pt" height="100pt" version="1.1" viewBox="0 0 100 100" xmlns="http://www.w3.org/2000/svg">
 <g>
  <path d="m43.277 24.277l-0.023438 0.007812c-1.5039 0.36719-8.8594 0.92578-13.918-8.2422-1.9609-3.9102-1.8789-8.8789-1.8789-8.8789s2.6562 2.3984 5.3789 2.2539c1.8477-0.10547 4.1172-1.5273 4.5508-1.8242 1.0352-0.60547 2.2109-1.0195 3.4688-1.1641 4.9023-0.55078 9.3203 3.0234 9.8594 7.9688 0.52734 4.8164-2.7656 9.1094-7.4375 9.8789z"/>
  <path d="m71.477 23.414v7.7539l-17.535 0.027343c-2.9805 0-5.3906 2.4102-5.3906 5.3945v2.0898l-13-0.003907c0.16016-2 0.24609-3.6445 0.19922-4.6445 0.66797-9.6719-3.6172-11.652-3.6172-11.652-16.32-8.2969-26.492 30.586-18 41.797l-13.41-0.039062v32.234h5.1523v-19.785h27.988v19.785h5.1523l0.003906-28.512h9.3203l9.7617 28.559h40.781v-73.004zm0 65.914h-5.4336s-9.4062-27.348-10.559-29.977c-0.82031-2.7305-3.2578-4.7539-6.2461-4.7539h-15.543c0.26953-1.9258 0.50391-3.7891 0.73438-5.6523h-11.191v-13.75h2.0938v11.82l46.145-0.003906z"/>
 </g>
</svg>
