<?xml version="1.0" encoding="UTF-8"?>
<svg width="100pt" height="100pt" version="1.1" viewBox="0 0 100 100" xmlns="http://www.w3.org/2000/svg">
 <g>
  <path d="m68.801 32.199h-37.699v55.199h37.602l-0.003906-55.199zm-10.102 25.102h-6.3008v17.602h-5v-17.602h-6.3008v-5h6.3008v-6.3008h5v6.3008h6.3008z"/>
  <path d="m77.699 20.898h-26.5v-2.8984c0-0.30078-0.30078-6.6016 5.3008-8.6016 0.5 0.5 1.3008 0.89844 2 0.89844 1.1016 0.19922 2.1016-0.60156 2.1992-1.6992 0.19922-1.1016-0.60156-2.1016-1.6992-2.1992-1-0.10156-2.6016 0.80078-2.8984 1.8008-6.6016 2.3984-6.1992 9.8008-6.1992 9.8984v2.8984l-27.602 0.003906c-1.3984 0-2.5 3.6016-2.5 5s1.1016 2.5 2.5 2.5h2.6016l-0.003906 62.5c0 1.3984 1.1016 2.6016 2.5 2.6016h45.398c1.3984 0 2.3008-1.1992 2.3008-2.6016l0.003906-62.602h2.6992c1.3984 0 2.5-1.1016 2.5-2.5-0.10156-1.3984-1.1992-5-2.6016-5zm-5.1992 70.203h-45.102v-62.703h45.102z"/>
 </g>
</svg>
