<?xml version="1.0" encoding="UTF-8"?>
<svg width="100pt" height="100pt" version="1.1" viewBox="0 0 100 100" xmlns="http://www.w3.org/2000/svg">
 <path d="m67.535 36.93v-0.019532c0-0.050781-0.007812-0.10156-0.015625-0.15234-0.007812-0.039062-0.007812-0.074218-0.015625-0.11328-0.011718-0.042969-0.027344-0.082031-0.039062-0.12109-0.015625-0.042969-0.023438-0.085938-0.042969-0.125-0.015625-0.035157-0.039063-0.070313-0.058594-0.10547-0.019531-0.039063-0.039062-0.082031-0.066406-0.11719-0.023437-0.035156-0.054687-0.066406-0.085937-0.10156-0.023438-0.03125-0.050782-0.0625-0.082032-0.097657-0.027344-0.027343-0.0625-0.054687-0.10156-0.082031-0.035156-0.023437-0.066406-0.054687-0.10547-0.082031-0.027344-0.019531-0.0625-0.03125-0.097656-0.050781-0.046875-0.023438-0.09375-0.050781-0.14453-0.070313-0.007813-0.003906-0.011719-0.003906-0.019532-0.007812l-23.398-8.8672c-0.027344-0.007812-0.0625-0.015625-0.09375-0.023437-0.046875-0.015625-0.097657-0.03125-0.14453-0.039063-0.050782-0.007812-0.10156-0.011718-0.14844-0.015625-0.027344-0.003906-0.058594-0.007812-0.09375-0.007812h-0.019531c-0.054688 0.003906-0.10547 0.007812-0.15625 0.015625-0.035157 0.003906-0.074219 0.007812-0.10938 0.015625-0.046875 0.007812-0.085938 0.023437-0.12891 0.039062-0.042969 0.011719-0.082032 0.019531-0.125 0.039063-0.035157 0.015625-0.070313 0.039062-0.10938 0.058594-0.039062 0.023437-0.078124 0.039062-0.11328 0.066406-0.039062 0.023437-0.070312 0.054687-0.10547 0.085937-0.03125 0.027344-0.0625 0.050781-0.09375 0.078125-0.03125 0.03125-0.058593 0.066406-0.082031 0.10156-0.027343 0.03125-0.054687 0.066406-0.082031 0.10156-0.019531 0.027344-0.035156 0.0625-0.050781 0.097657-0.027344 0.042968-0.054688 0.089843-0.074219 0.13672 0 0.007813-0.003906 0.011719-0.007812 0.019532-0.011719 0.03125-0.015626 0.058593-0.023438 0.089843-0.015625 0.050781-0.027344 0.097657-0.039062 0.14844-0.011719 0.046875-0.015626 0.097656-0.019532 0.14453 0 0.03125-0.007812 0.0625-0.007812 0.09375v25.711c-0.90625-0.57422-1.9805-0.91016-3.1367-0.91016-3.2227 0-5.832 2.5859-5.832 5.7695 0 3.1875 2.6094 5.7695 5.832 5.7695 3.2188 0 5.8281-2.5859 5.8281-5.7695 0-0.046874-0.007812-0.09375-0.007812-0.14062 0.007812-0.050782 0.015624-0.097657 0.015624-0.14453v-22.066l20.703 7.8438v18.516c-0.90625-0.57422-1.9805-0.91016-3.1367-0.91016-3.2188 0-5.832 2.5859-5.832 5.7695 0 3.1875 2.6094 5.7734 5.832 5.7734 3.2227 0 5.8281-2.5859 5.8281-5.7734 0-0.046875-0.007813-0.09375-0.007813-0.14062 0.003907-0.050781 0.011719-0.097656 0.011719-0.14453z"/>
</svg>
