<?xml version="1.0" encoding="UTF-8"?>
<svg width="100pt" height="100pt" version="1.1" viewBox="0 0 100 100" xmlns="http://www.w3.org/2000/svg">
 <path d="m50.035 16.934c-16.348 0-29.602 13.254-29.602 29.602 0 6.6328 2.1797 12.754 5.8633 17.688l-10.031 18.867s0.10156 0.32812 0.42578 0.22656l18.781-11.004c4.3008 2.4336 9.2656 3.8242 14.559 3.8242 16.348 0 29.602-13.254 29.602-29.602 0.003907-16.348-13.25-29.602-29.598-29.602zm14.156 34.469l-13.223 12.734c-0.25391 0.25391-0.59375 0.38281-0.93359 0.38281s-0.67969-0.12891-0.93359-0.38281l-13.246-12.777c-0.16797-0.14844-4.8398-4.4141-4.8398-9.5078 0-6.2188 3.8008-9.9336 10.145-9.9336 3.7148 0 7.1953 2.9297 8.8711 4.5859 1.6758-1.6562 5.1562-4.5859 8.8711-4.5859 6.3477 0 10.148 3.7148 10.148 9.9336 0.003907 5.0938-4.668 9.3594-4.8594 9.5508z"/>
</svg>
