<?xml version="1.0" encoding="UTF-8"?>
<svg width="100pt" height="100pt" version="1.1" viewBox="0 0 100 100" xmlns="http://www.w3.org/2000/svg">
 <path d="m90 12h-9v6.5c0 4.6953-3.8086 8.5-8.5 8.5s-8.5-3.8047-8.5-8.5v-6.5h-28v6.5c0 4.6953-3.8047 8.5-8.5 8.5s-8.5-3.8047-8.5-8.5v-6.5h-9c-2.7617 0-5 2.2383-5 5v73c0 2.7617 2.2383 5 5 5h80c2.7617 0 5-2.2383 5-5v-73c0-2.7617-2.2383-5-5-5zm-20 52h-15v15h-10v-15h-15v-10h15v-15h10v15h15zm-42.5-41c3.0352 0 5.5-2.4648 5.5-5.5v-9c0-3.0352-2.4648-5.5-5.5-5.5s-5.5 2.4648-5.5 5.5v9c0 3.0352 2.4648 5.5 5.5 5.5zm45 0c3.0352 0 5.5-2.4648 5.5-5.5v-9c0-3.0352-2.4648-5.5-5.5-5.5s-5.5 2.4648-5.5 5.5v9c0 3.0352 2.4648 5.5 5.5 5.5z"/>
</svg>
