<?xml version="1.0" encoding="UTF-8"?>
<svg width="100pt" height="100pt" version="1.1" viewBox="0 0 100 100" xmlns="http://www.w3.org/2000/svg">
 <g>
  <path d="m22.676 27.551c0 3.5391-2.8711 6.4141-6.4141 6.4141s-6.4141-2.875-6.4141-6.4141c0-3.543 2.8711-6.4141 6.4141-6.4141s6.4141 2.8711 6.4141 6.4141"/>
  <path d="m39.602 27.551c0 3.5391-2.8711 6.4141-6.4141 6.4141-3.5391 0-6.4141-2.875-6.4141-6.4141 0-3.543 2.875-6.4141 6.4141-6.4141 3.543 0 6.4141 2.8711 6.4141 6.4141"/>
  <path d="m30.891 12.59c0 3.5391-2.8711 6.4141-6.4141 6.4141-3.543 0-6.4141-2.875-6.4141-6.4141 0-3.543 2.8711-6.4141 6.4141-6.4141 3.543 0 6.4141 2.8711 6.4141 6.4141"/>
  <path d="m48.207 12.59c0 3.5391-2.8711 6.4141-6.4141 6.4141-3.5391 0-6.4102-2.875-6.4102-6.4141 0-3.543 2.8711-6.4141 6.4102-6.4141 3.543 0 6.4141 2.8711 6.4141 6.4141"/>
  <path d="m64.633 12.59c0 3.5391-2.8711 6.4141-6.4102 6.4141-3.543 0-6.4141-2.875-6.4141-6.4141 0-3.543 2.8711-6.4141 6.4141-6.4141 3.5391 0 6.4102 2.8711 6.4102 6.4141"/>
  <path d="m80.977 12.59c0 3.5391-2.8711 6.4141-6.4102 6.4141-3.543 0-6.4141-2.875-6.4141-6.4141 0-3.543 2.8711-6.4141 6.4141-6.4141 3.5391 0 6.4102 2.8711 6.4102 6.4141"/>
  <path d="m73.066 27.551c0 3.5391-2.875 6.4141-6.4141 6.4141-3.543 0-6.4141-2.875-6.4141-6.4141 0-3.543 2.8711-6.4141 6.4141-6.4141 3.5391 0 6.4141 2.8711 6.4141 6.4141"/>
  <path d="m50.008 21.137c3.5391 0 6.4141 2.8711 6.4141 6.4141 0 3.5391-2.8711 6.4141-6.4141 6.4141-3.5469 0-6.4141-2.8711-6.4141-6.4141s2.8672-6.4141 6.4141-6.4141z"/>
  <path d="m83.516 21.137c3.543 0 6.4141 2.8711 6.4141 6.4141 0 3.5391-2.8711 6.4141-6.4141 6.4141-3.5469 0-6.4141-2.8711-6.4141-6.4141s2.8672-6.4141 6.4141-6.4141z"/>
  <path d="m64.609 43.391c0-3.957-3.1992-7.1602-7.1445-7.1602l-14.902 0.003906c-3.9453 0-7.1484 3.2031-7.1484 7.1602l-0.019531 22.594h6.3086v27.996h16.676l-0.003906-27.996h6.2461zm-17.086 12.52c0.4375-0.46484 0.71094-1.043 0.71094-1.6836 0-1.5078-1.4492-2.7266-3.2383-2.7266-1.3867 0-2.5625 0.73438-3.0234 1.7695l-0.003906-10.617 7.8203 3.7148 7.8203-3.7148v10.598c-0.45312-1.0469-1.6328-1.7969-3.0312-1.7969-1.7891 0-3.2383 1.2188-3.2383 2.7266 0 0.65625 0.28516 1.2461 0.74219 1.7188l-2.293 1.0898z"/>
  <path d="m98.117 43.391c0-3.957-3.1992-7.1602-7.1445-7.1602l-14.902 0.003906c-3.9453 0-7.1484 3.2031-7.1484 7.1602l-0.023437 22.594h6.3086v27.996h16.676v-27.996h6.2461zm-16.867 12.52c0.4375-0.46484 0.71094-1.043 0.71094-1.6836 0-1.5078-1.4492-2.7266-3.2422-2.7266-1.3867 0-2.5625 0.73438-3.0234 1.7695v-10.617l7.8203 3.7148 7.8203-3.7148v10.598c-0.45313-1.0469-1.6328-1.7969-3.0312-1.7969-1.7891 0-3.2383 1.2188-3.2383 2.7266 0 0.65625 0.28516 1.2461 0.74219 1.7188l-2.293 1.0898z"/>
  <path d="m30.824 43.391c0-3.957-3.1992-7.1602-7.1445-7.1602l-14.902 0.003906c-3.9453 0-7.1484 3.2031-7.1484 7.1602l-0.023437 22.594h6.3086v27.996h16.676v-27.996h6.2461zm-16.867 12.52c0.4375-0.46484 0.71094-1.043 0.71094-1.6836 0-1.5078-1.4492-2.7266-3.2383-2.7266-1.3867 0-2.5625 0.73438-3.0234 1.7695l-0.003906-10.617 7.8203 3.7148 7.8203-3.7148v10.598c-0.45312-1.0469-1.6328-1.7969-3.0352-1.7969-1.7891 0-3.2383 1.2188-3.2383 2.7266 0 0.65625 0.28516 1.2461 0.74219 1.7188l-2.293 1.0898z"/>
 </g>
</svg>
