<?xml version="1.0" encoding="UTF-8"?>
<svg width="100pt" height="100pt" version="1.1" viewBox="0 0 100 100" xmlns="http://www.w3.org/2000/svg">
 <g>
  <path d="m53.488 74.996c1.1992-1.1094 2.3125-2.3789 3.2969-3.8008 5.1797-7.4766 5.2227-16.711 0.60156-22.352l15.75-22.75-6.0312-4.1797-15.75 22.746c-6.9062-2.3438-15.535 0.94531-20.711 8.4258-0.98438 1.4219-1.7812 2.9102-2.3984 4.4219-4.9688 0.30469-9.3711 2.418-12.039 6.2734-5.3477 7.7266-1.7031 19.516 8.1445 26.328 9.8477 6.8164 22.16 6.082 27.512-1.6445 2.6602-3.8477 3.0898-8.7109 1.625-13.469zm-12.465-8.9688c-3.1562-2.1836-3.9414-6.5156-1.7617-9.668 2.1875-3.1562 6.5156-3.9414 9.6719-1.7578 3.1523 2.1836 3.9414 6.5156 1.7578 9.6719-2.1836 3.1523-6.5117 3.9414-9.668 1.7539z"/>
  <path d="m74.23 5.2148l-10.172 17.031 1.125 0.77734 1.7031-2.4531 7.5898 5.2539-1.7031 2.457 1.1289 0.78125 12.359-15.516z"/>
 </g>
</svg>
